<?xml version="1.0" encoding="UTF-8" standalone="no"?>
<!-- Created with Inkscape (http://www.inkscape.org/) -->

<svg
   xmlns:dc="http://purl.org/dc/elements/1.1/"
   xmlns:cc="http://creativecommons.org/ns#"
   xmlns:rdf="http://www.w3.org/1999/02/22-rdf-syntax-ns#"
   xmlns:svg="http://www.w3.org/2000/svg"
   xmlns="http://www.w3.org/2000/svg"
   xmlns:sodipodi="http://sodipodi.sourceforge.net/DTD/sodipodi-0.dtd"
   xmlns:inkscape="http://www.inkscape.org/namespaces/inkscape"
   width="64px"
   height="64px"
   id="svg2985"
   version="1.1"
   inkscape:version="0.48.4 r9939"
   sodipodi:docname="icon-white.svg"
   enable-background="new">
  <defs
     id="defs2987" />
  <sodipodi:namedview
     id="base"
     pagecolor="#ffffff"
     bordercolor="#666666"
     borderopacity="1.0"
     inkscape:pageopacity="0.0"
     inkscape:pageshadow="2"
     inkscape:zoom="11.671875"
     inkscape:cx="32.123302"
     inkscape:cy="31.810758"
     inkscape:current-layer="layer2"
     showgrid="true"
     inkscape:document-units="px"
     inkscape:grid-bbox="true"
     inkscape:window-width="1280"
     inkscape:window-height="1000"
     inkscape:window-x="0"
     inkscape:window-y="24"
     inkscape:window-maximized="1" />
  <metadata
     id="metadata2990">
    <rdf:RDF>
      <cc:Work
         rdf:about="">
        <dc:format>image/svg+xml</dc:format>
        <dc:type
           rdf:resource="http://purl.org/dc/dcmitype/StillImage" />
        <dc:title></dc:title>
      </cc:Work>
    </rdf:RDF>
  </metadata>
  <g
     inkscape:groupmode="layer"
     id="layer1"
     inkscape:label="Шар"
     style="display:none">
    <rect
       style="fill:#0000ff;fill-opacity:1"
       id="rect3811"
       width="64.68541"
       height="65.370819"
       x="-0.34270415"
       y="-0.77108431"
       ry="0" />
    <path
       style="fill:#000000;fill-opacity:1"
       d="m 20.071308,36.654252 c -2.02745,-0.318944 -3.998764,-1.380024 -5.381995,-2.896914 -1.770577,-1.941666 -2.690121,-4.738918 -2.430381,-7.393219 0.358366,-3.662176 2.579272,-6.700562 5.854277,-8.009143 0.85541,-0.341793 1.640584,-0.503668 2.686345,-0.553831 3.560001,-0.170763 6.755172,1.824163 8.39324,5.240374 0.787582,1.642512 0.859937,2.000208 0.858768,4.245399 -9.85e-4,1.886308 -0.0062,1.943353 -0.243513,2.655958 -0.335785,1.008355 -1.058646,2.430623 -1.61733,3.182183 -1.389459,1.869146 -3.670494,3.231416 -5.848996,3.493113 -0.742205,0.08916 -1.823754,0.106347 -2.270415,0.03608 l 0,0 z m 6.524682,-7.477303 c 0.633899,-0.23909 1.140759,-0.648788 1.543061,-1.247265 1.66532,-2.477385 -0.424873,-5.734614 -3.375067,-5.259499 -1.085492,0.174814 -2.063317,0.924444 -2.52942,1.939131 -0.300739,0.654696 -0.368635,1.756179 -0.149941,2.432534 0.374662,1.158723 1.269131,2.008599 2.42007,2.299421 0.493692,0.124747 1.543613,0.04225 2.091297,-0.164322 l 0,0 z"
       id="path3821"
       inkscape:connector-curvature="0" />
  </g>
  <g
     inkscape:groupmode="layer"
     id="layer3"
     inkscape:label="main"
     style="display:none">
    <g
       id="g3872">
      <path
         inkscape:connector-curvature="0"
         id="path3862"
         d="M 28.321788,11.538849 C 28.208118,11.459232 27.368313,11.015435 26.455553,10.552635 23.452753,9.0301136 21.486004,8.3751419 18.484647,7.8981443 17.647214,7.7650532 16.924781,7.7330651 14.806187,7.7352685 11.843256,7.7383501 11.710766,7.7518291 4.5436782,8.7793313 2.4492981,9.0795901 0.71135575,9.3008975 0.68158402,9.2711258 0.62383625,9.2133781 0.39217721,8.4740187 0.42377462,8.4483054 0.51678854,8.3726126 3.8152031,6.9725289 5.2152784,6.4144475 11.885173,3.7557733 16.610553,2.9045071 19.062392,3.9199218 c 0.309087,0.1280068 0.618905,0.2565288 0.688482,0.2856045 0.100813,0.042129 0.113723,-0.015265 0.06357,-0.282599 C 19.740523,3.5288878 19.50517,3.1006035 18.983539,2.4108808 18.534602,1.8172766 18.306187,1.3937481 18.306187,1.154928 c 0,-0.27748529 0.344341,-0.64005855 0.71268,-0.75041564 0.31585,-0.094631 0.379887,-0.0780176 0.926941,0.24048274 3.376491,1.9658243 6.309851,4.7796221 7.553925,7.2460301 0.521149,1.0331929 0.687064,1.4954156 0.941736,2.6236038 0.125596,0.556377 0.228355,1.047006 0.228355,1.090287 0,0.11781 -0.117305,0.09554 -0.348036,-0.06607 l 0,0 z M 27.397051,9.9336081 C 27.397026,9.9211081 27.31171,9.6858808 27.207462,9.4108808 26.368466,7.1976742 24.562868,5.0216077 21.921794,3.0407071 20.823698,2.2170963 19.504219,1.3643645 19.435001,1.4335827 c -0.01824,0.018236 0.167107,0.3078542 0.411875,0.643595 0.811167,1.1126536 1.02172,1.7778546 0.823834,2.602736 C 20.58292,5.0458462 20.502582,5.1729578 20.289394,5.2832015 20.037859,5.413275 19.993231,5.4091369 19.640015,5.2229895 18.634727,4.6931953 18.393324,4.5973641 17.806707,4.4952092 17.034678,4.3607661 15.15156,4.4320337 13.988006,4.6397299 11.779828,5.0338929 8.7389801,5.9714156 5.5334602,7.2463475 4.175493,7.786452 3.7176769,8.0292312 4.2607329,7.9212729 4.7494138,7.8241242 8.2248932,7.3282952 9.7152784,7.1431005 12.368584,6.8134019 13.535286,6.7469235 15.669824,6.803812 c 2.808655,0.074855 4.736172,0.3996296 7.16276,1.2068822 1.230414,0.4093219 3.279559,1.2796634 4.019058,1.7070311 0.366075,0.21156 0.545544,0.2825977 0.545409,0.2158828 z"
         style="fill:#ffffff;fill-opacity:1" />
      <path
         inkscape:connector-curvature="0"
         id="path3864"
         d="m 31.749691,56.09008 c -1.216086,-0.820397 -3.718528,-3.616151 -5.408864,-6.042836 -1.816955,-2.608463 -2.795801,-4.634332 -3.043336,-6.29864 -0.08464,-0.569085 -0.07747,-0.762051 0.04382,-1.17928 0.683821,-2.35226 5.023597,-5.067534 8.099355,-5.067534 0.54825,0 0.605098,-0.01845 0.700243,-0.227273 0.131624,-0.288883 0.177365,-0.28479 0.357537,0.03199 0.116307,0.204493 0.231973,0.269786 0.556791,0.314308 1.832822,0.251216 4.980496,1.886088 6.394775,3.321384 0.815728,0.827852 1.037993,1.307383 1.037993,2.239449 0,0.404287 -0.05848,0.958754 -0.129943,1.23215 -0.07147,0.273397 -0.10215,0.522687 -0.06818,0.553977 0.137985,0.12711 1.567817,0.538172 2.323669,0.668033 4.324371,0.742959 8.812241,-1.196307 11.889998,-5.13782 5.90232,-7.558775 5.30366,-19.98084 -1.277999,-26.5182 -1.810948,-1.798759 -3.731596,-2.917842 -6.081113,-3.543217 -0.785649,-0.209117 -1.065271,-0.236201 -2.520067,-0.244089 -1.839482,-0.01 -2.419728,0.07478 -3.813391,0.55699 -2.620154,0.90658 -4.868034,2.626693 -6.715164,5.138547 -0.532748,0.724468 -1.425095,2.214285 -1.427142,2.382686 -6.36e-4,0.0521 -0.115926,-0.130277 -0.256206,-0.405277 -0.14028,-0.275 -0.308092,-0.583803 -0.372915,-0.68623 -0.1032,-0.163067 -0.08027,-0.247867 0.184375,-0.681818 0.751705,-1.232611 1.988281,-2.751032 3.085304,-3.788522 0.326674,-0.308945 0.59972,-0.635331 0.606768,-0.725302 0.02986,-0.381122 0.48055,-2.2015705 0.65376,-2.6406933 1.155598,-2.9296809 3.970901,-5.8708428 7.836092,-8.1864053 0.675514,-0.40468735 0.817276,-0.45744429 1.045455,-0.38906788 0.489151,0.14657945 0.588422,0.21009587 0.717012,0.45876268 0.200341,0.3874162 0.08973,0.6702641 -0.64109,1.6392761 -0.477163,0.6326866 -0.766494,1.1989751 -0.766494,1.5002105 l 0,0.2347265 0.396159,-0.2321644 C 45.931802,3.9140713 46.40899,3.823628 48.03346,3.822992 c 2.139882,-8.364e-4 4.010599,0.3793809 7.368315,1.497592 2.912422,0.9699163 8.268677,3.1714335 8.267542,3.398109 -0.0011,0.2183624 -0.194143,0.7830969 -0.267695,0.7830969 -0.04281,0 -1.810206,-0.2437329 -3.927545,-0.5416287 -6.402355,-0.9007695 -6.894407,-0.9494879 -9.622435,-0.9527217 -1.863527,-0.00221 -2.656138,0.034103 -3.5,0.1603478 -0.962238,0.1439541 -3.409091,0.6726861 -3.409091,0.7366589 0,0.013186 0.644318,0.023589 1.431818,0.023118 0.983234,-5.909e-4 1.684564,0.048087 2.238546,0.1553645 2.915411,0.5645641 5.474505,1.9844493 7.63344,4.2353303 3.601247,3.754621 5.525382,8.851117 5.526468,14.638076 4.54e-4,2.377403 -0.231495,4.105988 -0.84777,6.318182 -1.486337,5.335383 -5.036476,9.769905 -9.300684,11.6176 -1.835139,0.795172 -3.250493,1.09763 -5.136363,1.09763 -1.485885,0 -2.463867,-0.15232 -3.801197,-0.592034 -0.465658,-0.153109 -0.85992,-0.263917 -0.876137,-0.246242 -0.01622,0.01767 -0.159014,0.338955 -0.317325,0.713955 -1.169199,2.769548 -3.908619,7.116023 -5.427365,8.611278 -0.531644,0.52342 -1.32168,1.028924 -1.597682,1.022276 -0.06416,-0.0015 -0.387536,-0.185551 -0.718609,-0.4089 l 0,0 z m 1.40974,-1.611494 c 1.00379,-1.003791 2.63893,-3.426298 3.942164,-5.840433 1.339589,-2.481478 1.923828,-4.013384 1.993578,-5.227272 l 0.0444,-0.772728 -0.379888,-0.454545 c -0.887977,-1.062484 -3.296673,-2.497995 -5.044408,-3.006317 -1.243241,-0.361592 -2.548462,-0.396437 -3.698493,-0.09874 -1.604492,0.415339 -3.276439,1.353299 -4.39814,2.467349 -0.770132,0.764879 -0.993997,1.188015 -0.969601,1.832684 0.07983,2.109572 3.076879,6.891493 6.472869,10.327751 0.679444,0.6875 1.308345,1.25 1.39756,1.25 0.08921,0 0.377195,-0.214987 0.639958,-0.477749 l 0,0 z M 38.53346,9.6931026 c 2.563559,-1.2546403 4.974674,-2.0131009 7.727273,-2.4307564 0.851344,-0.1291756 1.629931,-0.1654402 3.545454,-0.1651385 2.667343,4.182e-4 3.722739,0.095389 8.082636,0.7273095 2.067432,0.2996521 2.531874,0.33239 2.043609,0.1440514 C 59.812997,7.9224991 59.18346,7.6717754 58.53346,7.4114049 51.792273,4.7110872 46.979586,3.982114 45.22139,5.3950382 44.609645,5.8866502 44.221593,5.8475916 43.980309,5.2701196 43.658111,4.4989913 43.926335,3.5054173 44.750482,2.4171893 c 0.61721,-0.814982 0.520462,-0.7946682 -0.989749,0.2078131 -1.79139,1.1891282 -3.847803,3.057017 -4.892086,4.4435966 -0.558317,0.7413247 -1.05091,1.6079804 -1.396177,2.4563994 -0.263501,0.6474966 -0.308847,0.8342256 -0.18901,0.7783136 0.0375,-0.0175 0.6,-0.29209 1.25,-0.6102094 l 0,0 z"
         style="fill:#ffffff;fill-opacity:1" />
      <path
         inkscape:connector-curvature="0"
         id="path3866"
         d="M 19.624369,46.99 C 18.200841,46.835802 16.595566,46.388278 15.260733,45.773492 10.684298,43.665713 7.0641805,38.672757 5.8428114,32.784061 c -0.6475375,-3.12203 -0.6475375,-6.533421 0,-9.655451 C 7.6638451,14.348697 14.489355,8.2689233 21.754351,8.955521 c 1.34427,0.1270438 1.986343,0.3481121 4.233655,1.457666 3.101788,1.53143 2.966068,1.443587 4.272727,2.765463 1.484943,1.502237 2.548008,2.959504 2.158934,2.959504 -0.03758,0 -0.166192,0.184457 -0.285792,0.409906 l -0.217455,0.409906 -0.299013,-0.454027 c -1.944487,-2.952554 -4.747801,-5.152973 -7.629401,-5.98858 -2.302123,-0.6675706 -4.965939,-0.6247799 -7.099127,0.114038 -3.959861,1.371477 -7.1569133,4.634597 -8.9338259,9.118448 -0.9968115,2.515349 -1.3847363,4.717766 -1.3817603,7.844854 0.00268,2.8158 0.304835,4.871389 1.0501537,7.144286 0.9579893,2.921449 2.4121965,5.341349 4.3656875,7.264805 2.524388,2.485574 5.487407,3.772727 8.684802,3.772727 0.893323,0 2.283603,-0.158203 2.815596,-0.320392 0.09744,-0.0297 0.208478,0.117671 0.378482,0.502319 0.132325,0.299397 0.203653,0.567188 0.158505,0.59509 -0.404619,0.250069 -3.393281,0.547747 -4.40215,0.438466 z"
         style="fill:#ffffff;fill-opacity:1" />
      <path
         inkscape:connector-curvature="0"
         id="path3868"
         d="m 19.452821,36.597227 c -2.165986,-0.471723 -4.181595,-1.804589 -5.482247,-3.625253 -2.050324,-2.870065 -2.397027,-6.716995 -0.892281,-9.900508 0.992547,-2.099879 2.504377,-3.623173 4.544955,-4.579421 2.705801,-1.267981 5.958635,-0.983266 8.450996,0.739702 1.874954,1.296156 3.234179,3.248948 3.844972,5.52406 0.211969,0.789553 0.237117,1.049658 0.239118,2.473256 0.002,1.439296 -0.02085,1.677544 -0.240006,2.5 -0.322345,1.209699 -1.089601,2.724904 -1.869121,3.691211 -1.17338,1.454543 -2.99926,2.643886 -4.74302,3.08951 -1.110116,0.283695 -2.778417,0.321553 -3.853366,0.08744 l 0,0 z m 7.296199,-7.506589 c 0.995263,-0.446647 1.763105,-1.473176 1.917157,-2.56305 0.317887,-2.248943 -1.585264,-4.159085 -3.828011,-3.842075 -0.729338,0.103091 -1.275553,0.371786 -1.838942,0.904616 -1.839123,1.739366 -1.133348,4.849813 1.281803,5.649082 0.740011,0.244899 1.723096,0.185717 2.467993,-0.148573 l 0,0 z"
         style="fill:#ffffff;fill-opacity:1" />
      <path
         inkscape:connector-curvature="0"
         id="path3870"
         d="m 41.578915,36.33171 c -2.75048,-0.60201 -5.24765,-2.61555 -6.446526,-5.198016 -1.680421,-3.619753 -0.900529,-7.959799 1.935851,-10.77288 1.413873,-1.402258 2.948147,-2.194479 4.913877,-2.537273 3.800314,-0.66272 7.77301,1.391418 9.551776,4.938878 2.285602,4.558263 0.699086,10.017262 -3.649836,12.558625 -1.334073,0.779589 -2.481609,1.09032 -4.214233,1.141135 -1.055629,0.03096 -1.472092,0.005 -2.090909,-0.130469 z M 40.86797,28.986834 c 1.385804,-0.656537 2.162091,-1.843562 2.164506,-3.309759 0.0045,-2.732659 -3.007194,-4.452815 -5.551874,-3.171002 -2.150502,1.083257 -2.621959,4.011376 -0.919918,5.713417 0.799466,0.799466 1.590078,1.098501 2.836413,1.072822 0.760277,-0.01566 0.936309,-0.05222 1.470873,-0.305478 z"
         style="fill:#ffffff;fill-opacity:1" />
    </g>
  </g>
  <g
     inkscape:groupmode="layer"
     id="layer2"
     inkscape:label="01">
    <path
       style="fill:#000000;fill-opacity:1"
       d="m 41.764152,36.312106 c -2.673453,-0.525325 -5.196604,-2.483047 -6.476167,-5.024877 -1.811963,-3.599438 -1.060709,-8.020799 1.84925,-10.883407 1.377188,-1.354779 2.642097,-2.043099 4.553913,-2.478083 0.961192,-0.218694 2.727594,-0.192187 3.703372,0.05557 5.187248,1.3171 8.226789,6.596084 6.757659,11.736499 -0.824288,2.884146 -3.102409,5.323699 -5.85806,6.273174 -1.055433,0.363656 -3.449733,0.533382 -4.529967,0.32112 l 0,0 z m -0.842127,-7.305457 c 0.727228,-0.357096 1.457419,-1.0712 1.793603,-1.754085 0.26706,-0.542477 0.279963,-0.614181 0.279963,-1.555764 0,-0.889792 -0.02246,-1.034997 -0.227933,-1.4733 -0.410452,-0.875571 -1.254471,-1.633683 -2.193864,-1.970566 -0.724039,-0.259653 -1.941431,-0.253496 -2.633089,0.01332 -1.451074,0.559764 -2.327168,1.718783 -2.419643,3.201038 -0.07369,1.181193 0.290495,2.088674 1.167394,2.90891 0.79216,0.740973 1.331917,0.919005 2.708742,0.893443 0.935696,-0.01737 1.072762,-0.04101 1.524827,-0.262993 l 0,0 z"
       id="path3836"
       inkscape:connector-curvature="0" />
    <path
       style="fill:#000000;fill-opacity:1"
       d="m 19.56908,36.57245 c -1.021727,-0.211631 -2.337348,-0.784641 -3.283847,-1.430256 -2.122179,-1.447558 -3.527528,-3.721233 -3.95956,-6.406064 -0.485918,-3.019703 0.538347,-6.184316 2.701885,-8.347853 2.884248,-2.884249 7.191825,-3.438694 10.598069,-1.36412 1.745327,1.062992 3.141743,2.762016 3.914389,4.762649 0.483295,1.251413 0.582063,1.935507 0.544711,3.772861 -0.03222,1.585195 -0.03654,1.616612 -0.34608,2.519502 -0.963847,2.811415 -2.595048,4.698468 -5.057717,5.851015 -1.206124,0.564474 -1.688306,0.665481 -3.318538,0.695165 -0.77751,0.01416 -1.5845,-0.0096 -1.793312,-0.0529 l 0,0 z m 7.000899,-7.38375 c 1.351919,-0.498026 2.241238,-1.891393 2.139233,-3.35171 -0.06635,-0.949926 -0.329407,-1.526739 -1.003839,-2.201171 -0.763307,-0.763306 -1.270379,-0.969561 -2.401883,-0.976982 -0.743452,-0.0049 -0.863926,0.01835 -1.391443,0.268237 -0.329284,0.155984 -0.755011,0.451064 -0.990448,0.686502 -1.967476,1.967476 -0.797992,5.464658 1.924512,5.754988 0.727068,0.07754 1.142929,0.03415 1.723868,-0.179864 l 0,0 z"
       id="path3838"
       inkscape:connector-curvature="0" />
    <path
       style="fill:#000000;fill-opacity:1"
       d="m 31.894025,56.099822 c -0.699869,-0.451379 -1.804226,-1.525738 -3.027902,-2.945653 -3.766445,-4.370464 -5.964149,-8.58386 -5.474766,-10.49612 0.334819,-1.308304 1.956285,-2.88369 4.096872,-3.980443 1.253279,-0.642132 2.348717,-0.980069 3.544636,-1.093503 0.833706,-0.07908 1.019622,-0.12329 1.13983,-0.271062 l 0.143636,-0.176572 0.17406,0.22128 c 0.128005,0.162733 0.316688,0.250749 0.713123,0.332652 1.956419,0.404197 4.761686,1.891241 6.13739,3.253368 0.984475,0.97476 1.211458,1.62745 1.033749,2.972555 -0.15262,1.155205 -0.173544,1.07012 0.307685,1.251203 0.23561,0.08866 0.852477,0.261688 1.370817,0.384512 1.235989,0.292874 3.323527,0.325656 4.54083,0.07131 5.500179,-1.149228 9.747694,-5.787381 11.384663,-12.431695 0.516983,-2.098387 0.728716,-4.541427 0.575464,-6.639893 -0.380096,-5.204677 -2.179581,-9.467089 -5.317032,-12.594378 -1.892529,-1.886398 -3.984339,-3.070071 -6.428905,-3.637864 -0.74997,-0.174194 -3.671178,-0.181024 -4.554712,-0.01065 -0.678817,0.130899 -2.275286,0.675899 -2.899103,0.989692 -1.696477,0.853364 -3.430705,2.258444 -4.709244,3.815449 -0.55821,0.679787 -1.456819,2.019663 -1.77734,2.650111 l -0.214816,0.422534 -0.28946,-0.50821 c -0.159202,-0.279516 -0.289941,-0.587729 -0.290532,-0.684919 -0.0023,-0.375676 1.388867,-2.242429 2.744875,-3.683296 0.527963,-0.561002 1.008061,-1.097906 1.066887,-1.193119 0.05882,-0.09521 0.153283,-0.423717 0.209907,-0.730009 0.457195,-2.4730484 1.646519,-4.5643679 3.795657,-6.6743234 1.184101,-1.1625117 2.138479,-1.9316202 3.557974,-2.8672771 1.561182,-1.02904958 1.752453,-1.11692653 2.132199,-0.97960889 0.358961,0.1298021 0.627976,0.43840539 0.627976,0.72038919 0,0.1100923 -0.246839,0.561702 -0.548531,1.0035774 -0.301692,0.4418752 -0.629402,0.961932 -0.728246,1.1556816 -0.171506,0.3361806 -0.250784,0.9232732 -0.115459,0.8550297 1.365503,-0.6886097 1.943594,-0.8012207 3.662651,-0.713477 2.207477,0.1126734 3.743418,0.4472697 6.900918,1.5033273 2.862848,0.9575079 7.777134,2.9459136 8.11448,3.2832597 0.168568,0.1685674 0.02526,0.6915873 -0.198508,0.7244749 -0.09146,0.013442 -1.843396,-0.2076079 -3.893195,-0.4912217 -5.868666,-0.8119985 -6.413346,-0.8685999 -8.86747,-0.9214768 -2.385693,-0.051402 -3.593827,0.024459 -5.170469,0.324663 -1.402418,0.2670311 -2.411861,0.5137613 -2.411861,0.5895122 0,0.037694 0.761446,0.086876 1.692102,0.1092948 1.316505,0.031713 1.853751,0.080263 2.420348,0.2187245 3.744931,0.9151606 6.819892,3.1613376 9.193429,6.7155556 1.812738,2.714457 2.874304,5.675091 3.327648,9.280575 0.134941,1.073202 0.134353,4.344999 -9.86e-4,5.483267 -0.61913,5.207214 -3.056865,10.029801 -6.544797,12.947614 -2.616629,2.188928 -5.499665,3.286827 -8.633499,3.287753 -1.370838,4.29e-4 -2.049526,-0.113073 -4.007407,-0.670056 l -0.625451,-0.177929 -0.228543,0.531208 c -1.619023,3.763152 -4.779995,8.482976 -6.340715,9.467676 -0.637397,0.402151 -0.696953,0.402446 -1.310858,0.0065 l 10e-7,-3e-6 z m 0.85191,-1.226253 c 0.644373,-0.333218 2.508272,-2.892113 3.967092,-5.446308 1.67385,-2.930685 2.458663,-5.019913 2.468284,-6.570752 0.0045,-0.728956 -2.397656,-2.53534 -4.475323,-3.365344 -1.907244,-0.76192 -3.742679,-0.828773 -5.493569,-0.200093 -1.346393,0.48344 -2.708732,1.32855 -3.635289,2.255108 -0.983388,0.983388 -1.151106,1.586293 -0.777729,2.795751 0.840722,2.723303 3.649105,6.826833 6.661267,9.733255 0.524989,0.50656 0.975584,0.921017 1.001322,0.921017 0.02574,0 0.153513,-0.05519 0.283945,-0.122634 z m 5.149079,-44.81301 c 2.513046,-1.2655504 5.039804,-2.1332591 7.628021,-2.6195235 2.392622,-0.4495171 6.997328,-0.3574219 10.880856,0.2176193 1.78176,0.2638287 3.608088,0.48356 3.707542,0.4460664 C 60.249369,8.0527196 59.591614,7.7601005 57.860384,7.1032861 54.992934,6.0153987 52.663383,5.3125699 50.792111,4.9707774 47.950512,4.4517524 46.329158,4.5698906 45.148844,5.3819675 44.675578,5.7075834 44.373843,5.7064519 44.129851,5.3781464 43.699226,4.7987137 43.881039,3.8727741 44.665736,2.6489835 44.952312,2.2020481 45.148504,1.8236139 45.101718,1.8080186 44.895121,1.7391525 42.820482,3.1773159 41.537265,4.2789378 40.624649,5.0624055 39.243259,6.4837601 38.7742,7.1219388 37.942964,8.252878 36.956118,10.358988 37.257435,10.358988 c 0.02474,0 0.311648,-0.134293 0.637579,-0.298429 z"
       id="path3840"
       inkscape:connector-curvature="0" />
    <path
       style="fill:#000000;fill-opacity:1"
       d="M 18.577921,46.773514 C 15.559847,46.168017 13.111792,44.81535 10.952753,42.560247 8.076147,39.555648 6.345644,35.886021 5.6257028,31.263941 5.4329983,30.026763 5.4068482,26.188951 5.5825031,24.923914 6.6389758,17.315377 11.193317,11.267733 17.222689,9.4670797 18.518022,9.0802323 19.52017,8.9614313 21.04969,9.0134025 c 2.008896,0.06826 2.384025,0.1896978 5.635085,1.8242065 1.229061,0.617925 2.153772,1.143981 2.527443,1.437828 0.860137,0.676395 2.696255,2.725991 3.079374,3.437401 0.1366,0.253649 0.133475,0.27366 -0.103682,0.663984 -0.13449,0.221349 -0.263805,0.402252 -0.287365,0.402006 -0.02356,-2.48e-4 -0.264278,-0.318295 -0.534926,-0.706777 -1.861329,-2.671709 -4.435678,-4.652673 -7.175918,-5.521875 -1.253568,-0.397631 -1.937523,-0.489753 -3.641231,-0.490436 -1.303429,-5.23e-4 -1.681434,0.03035 -2.441767,0.199417 -2.449125,0.54459 -4.663911,1.834468 -6.604769,3.846579 -2.48986,2.581267 -4.2004591,6.175402 -4.749064,9.978246 -0.1862928,1.291352 -0.2563686,4.246172 -0.1347203,5.680628 0.8295874,9.782364 7.4877103,16.757107 15.2582983,15.983892 0.541901,-0.05392 1.133447,-0.137462 1.314546,-0.185642 0.382443,-0.101748 0.479022,-0.02002 0.688786,0.582862 l 0.12515,0.359694 -0.271738,0.08901 c -0.462814,0.151598 -2.450771,0.348595 -3.441225,0.341009 -0.537151,-0.0041 -1.274803,-0.0738 -1.714046,-0.16192 z"
       id="path3842"
       inkscape:connector-curvature="0" />
    <path
       style="fill:#000000;fill-opacity:1"
       d="M 26.457271,10.536419 C 23.587103,9.0951044 22.091582,8.5513569 19.732339,8.0913419 17.86919,7.7280571 17.091334,7.6775968 14.165605,7.7302218 11.230835,7.7830095 11.906882,7.7132629 4.5270506,8.724614 2.7835432,8.9635489 1.2170228,9.1781519 1.045894,9.2015106 0.76846734,9.2393786 0.72478454,9.2185156 0.64278127,9.0089812 0.4459093,8.5059347 0.45939099,8.4849724 1.1856851,8.1648329 6.4353323,5.8508683 10.721445,4.3850159 13.951415,3.7989483 c 1.020226,-0.1851167 3.277788,-0.2594089 4.0097,-0.1319517 0.310463,0.054065 0.842818,0.211571 1.183012,0.3500141 0.340195,0.1384432 0.649502,0.2325772 0.687348,0.2091867 0.07815,-0.048299 0.0066,-0.5068996 -0.119192,-0.7641305 C 19.666191,3.3678232 19.407026,2.963004 19.136361,2.5624685 18.271684,1.2829012 18.220047,1.1043397 18.607385,0.73324671 19.060142,0.29947762 19.316486,0.33454734 20.370187,0.97441106 24.039268,3.2024722 26.95738,6.3178231 27.9702,9.0881167 c 0.20925,0.5723476 0.701709,2.4942943 0.645506,2.5192523 -0.0075,0.0033 -0.978825,-0.478584 -2.158435,-1.07095 l 0,0 z M 27.399956,9.8235127 C 27.226255,9.2358779 26.617575,8.0196495 26.132609,7.2911732 24.931932,5.4876153 23.308172,3.9247153 20.934012,2.2874249 20.076575,1.6961115 19.468691,1.3432735 19.40945,1.4025142 c -0.01948,0.019477 0.183387,0.3710827 0.450811,0.7813456 0.6612,1.0143704 0.841825,1.49316 0.797778,2.1146998 -0.03725,0.5255971 -0.261063,0.9384194 -0.53828,0.9928452 C 20.035321,5.3079825 19.594461,5.1432379 19.14007,4.9253057 18.460544,4.5993952 18.174096,4.5125346 17.526213,4.4359299 15.034958,4.1413679 10.987887,5.056014 5.8978672,7.0639602 4.5118016,7.6107449 3.9065789,7.8990491 4.0667681,7.9362237 4.1434654,7.9540225 5.5699715,7.7766444 7.2367815,7.5420498 11.868454,6.890167 11.888677,6.8884311 14.765337,6.8958237 c 2.737408,0.00703 3.845139,0.1020433 5.526105,0.4739662 1.904857,0.4214603 4.187611,1.2352424 6.082998,2.1685364 0.51834,0.2552323 0.97395,0.4671857 1.012467,0.4710087 0.03852,0.0038 0.04439,-0.079798 0.01305,-0.1858223 l 0,0 z"
       id="path3844"
       inkscape:connector-curvature="0" />
  </g>
</svg>
