<?xml version="1.0" encoding="UTF-8" standalone="no"?>
<!-- Created with Inkscape (http://www.inkscape.org/) -->

<svg
   xmlns:dc="http://purl.org/dc/elements/1.1/"
   xmlns:cc="http://creativecommons.org/ns#"
   xmlns:rdf="http://www.w3.org/1999/02/22-rdf-syntax-ns#"
   xmlns:svg="http://www.w3.org/2000/svg"
   xmlns="http://www.w3.org/2000/svg"
   xmlns:sodipodi="http://sodipodi.sourceforge.net/DTD/sodipodi-0.dtd"
   xmlns:inkscape="http://www.inkscape.org/namespaces/inkscape"
   width="64px"
   height="64px"
   id="svg2985"
   version="1.1"
   inkscape:version="0.48.4 r9939"
   sodipodi:docname="icon-white.svg"
   enable-background="new">
  <defs
     id="defs2987" />
  <sodipodi:namedview
     id="base"
     pagecolor="#ffffff"
     bordercolor="#666666"
     borderopacity="1.0"
     inkscape:pageopacity="0.0"
     inkscape:pageshadow="2"
     inkscape:zoom="11.671875"
     inkscape:cx="32"
     inkscape:cy="32.789119"
     inkscape:current-layer="layer3"
     showgrid="true"
     inkscape:document-units="px"
     inkscape:grid-bbox="true"
     inkscape:window-width="1280"
     inkscape:window-height="1000"
     inkscape:window-x="0"
     inkscape:window-y="24"
     inkscape:window-maximized="1" />
  <metadata
     id="metadata2990">
    <rdf:RDF>
      <cc:Work
         rdf:about="">
        <dc:format>image/svg+xml</dc:format>
        <dc:type
           rdf:resource="http://purl.org/dc/dcmitype/StillImage" />
        <dc:title />
      </cc:Work>
    </rdf:RDF>
  </metadata>
  <g
     inkscape:groupmode="layer"
     id="layer3"
     inkscape:label="main">
    <g
       id="g3872">
      <path
         inkscape:connector-curvature="0"
         id="path3862"
         d="M 28.321788,11.538849 C 28.208118,11.459232 27.368313,11.015435 26.455553,10.552635 23.452753,9.0301136 21.486004,8.3751419 18.484647,7.8981443 17.647214,7.7650532 16.924781,7.7330651 14.806187,7.7352685 11.843256,7.7383501 11.710766,7.7518291 4.5436782,8.7793313 2.4492981,9.0795901 0.71135575,9.3008975 0.68158402,9.2711258 0.62383625,9.2133781 0.39217721,8.4740187 0.42377462,8.4483054 0.51678854,8.3726126 3.8152031,6.9725289 5.2152784,6.4144475 11.885173,3.7557733 16.610553,2.9045071 19.062392,3.9199218 c 0.309087,0.1280068 0.618905,0.2565288 0.688482,0.2856045 0.100813,0.042129 0.113723,-0.015265 0.06357,-0.282599 C 19.740523,3.5288878 19.50517,3.1006035 18.983539,2.4108808 18.534602,1.8172766 18.306187,1.3937481 18.306187,1.154928 c 0,-0.27748529 0.344341,-0.64005855 0.71268,-0.75041564 0.31585,-0.094631 0.379887,-0.0780176 0.926941,0.24048274 3.376491,1.9658243 6.309851,4.7796221 7.553925,7.2460301 0.521149,1.0331929 0.687064,1.4954156 0.941736,2.6236038 0.125596,0.556377 0.228355,1.047006 0.228355,1.090287 0,0.11781 -0.117305,0.09554 -0.348036,-0.06607 l 0,0 z M 27.397051,9.9336081 C 27.397026,9.9211081 27.31171,9.6858808 27.207462,9.4108808 26.368466,7.1976742 24.562868,5.0216077 21.921794,3.0407071 20.823698,2.2170963 19.504219,1.3643645 19.435001,1.4335827 c -0.01824,0.018236 0.167107,0.3078542 0.411875,0.643595 0.811167,1.1126536 1.02172,1.7778546 0.823834,2.602736 -0.08779,0.3659325 -0.168128,0.4930441 -0.381316,0.6032878 C 20.037859,5.413275 19.993231,5.4091369 19.640015,5.2229895 18.634727,4.6931953 18.393324,4.5973641 17.806707,4.4952092 17.034678,4.3607661 15.15156,4.4320337 13.988006,4.6397299 11.779828,5.0338929 8.7389801,5.9714156 5.5334602,7.2463475 4.175493,7.786452 3.7176769,8.0292312 4.2607329,7.9212729 4.7494138,7.8241242 8.2248932,7.3282952 9.7152784,7.1431005 12.368584,6.8134019 13.535286,6.7469235 15.669824,6.803812 c 2.808655,0.074855 4.736172,0.3996296 7.16276,1.2068822 1.230414,0.4093219 3.279559,1.2796634 4.019058,1.7070311 0.366075,0.21156 0.545544,0.2825977 0.545409,0.2158828 z"
         style="fill:#ffffff;fill-opacity:1" />
      <path
         inkscape:connector-curvature="0"
         id="path3864"
         d="m 31.749691,56.09008 c -1.216086,-0.820397 -3.718528,-3.616151 -5.408864,-6.042836 -1.816955,-2.608463 -2.795801,-4.634332 -3.043336,-6.29864 -0.08464,-0.569085 -0.07747,-0.762051 0.04382,-1.17928 0.683821,-2.35226 5.023597,-5.067534 8.099355,-5.067534 0.54825,0 0.605098,-0.01845 0.700243,-0.227273 0.131624,-0.288883 0.177365,-0.28479 0.357537,0.03199 0.116307,0.204493 0.231973,0.269786 0.556791,0.314308 1.832822,0.251216 4.980496,1.886088 6.394775,3.321384 0.815728,0.827852 1.037993,1.307383 1.037993,2.239449 0,0.404287 -0.05848,0.958754 -0.129943,1.23215 -0.07147,0.273397 -0.10215,0.522687 -0.06818,0.553977 0.137985,0.12711 1.567817,0.538172 2.323669,0.668033 4.324371,0.742959 8.812241,-1.196307 11.889998,-5.13782 5.90232,-7.558775 5.30366,-19.98084 -1.277999,-26.5182 -1.810948,-1.798759 -3.731596,-2.917842 -6.081113,-3.543217 -0.785649,-0.209117 -1.065271,-0.236201 -2.520067,-0.244089 -1.839482,-0.01 -2.419728,0.07478 -3.813391,0.55699 -2.620154,0.90658 -4.868034,2.626693 -6.715164,5.138547 -0.532748,0.724468 -1.425095,2.214285 -1.427142,2.382686 -6.36e-4,0.0521 -0.115926,-0.130277 -0.256206,-0.405277 -0.14028,-0.275 -0.308092,-0.583803 -0.372915,-0.68623 -0.1032,-0.163067 -0.08027,-0.247867 0.184375,-0.681818 0.751705,-1.232611 1.988281,-2.751032 3.085304,-3.788522 0.326674,-0.308945 0.59972,-0.635331 0.606768,-0.725302 0.02986,-0.381122 0.48055,-2.2015705 0.65376,-2.6406933 1.155598,-2.9296809 3.970901,-5.8708428 7.836092,-8.1864053 0.675514,-0.40468735 0.817276,-0.45744429 1.045455,-0.38906788 0.489151,0.14657945 0.588422,0.21009587 0.717012,0.45876268 0.200341,0.3874162 0.08973,0.6702641 -0.64109,1.6392761 -0.477163,0.6326866 -0.766494,1.1989751 -0.766494,1.5002105 l 0,0.2347265 0.396159,-0.2321644 C 45.931802,3.9140713 46.40899,3.823628 48.03346,3.822992 c 2.139882,-8.364e-4 4.010599,0.3793809 7.368315,1.497592 2.912422,0.9699163 8.268677,3.1714335 8.267542,3.398109 -0.0011,0.2183624 -0.194143,0.7830969 -0.267695,0.7830969 -0.04281,0 -1.810206,-0.2437329 -3.927545,-0.5416287 -6.402355,-0.9007695 -6.894407,-0.9494879 -9.622435,-0.9527217 -1.863527,-0.00221 -2.656138,0.034103 -3.5,0.1603478 -0.962238,0.1439541 -3.409091,0.6726861 -3.409091,0.7366589 0,0.013186 0.644318,0.023589 1.431818,0.023118 0.983234,-5.909e-4 1.684564,0.048087 2.238546,0.1553645 2.915411,0.5645641 5.474505,1.9844497 7.63344,4.2353307 3.601247,3.754621 5.525382,8.851117 5.526468,14.638076 4.54e-4,2.377403 -0.231495,4.105988 -0.84777,6.318182 -1.486337,5.335383 -5.036476,9.769905 -9.300684,11.6176 -1.835139,0.795172 -3.250493,1.09763 -5.136363,1.09763 -1.485885,0 -2.463867,-0.15232 -3.801197,-0.592034 -0.465658,-0.153109 -0.85992,-0.263917 -0.876137,-0.246242 -0.01622,0.01767 -0.159014,0.338955 -0.317325,0.713955 -1.169199,2.769548 -3.908619,7.116023 -5.427365,8.611278 -0.531644,0.52342 -1.32168,1.028924 -1.597682,1.022276 -0.06416,-0.0015 -0.387536,-0.185551 -0.718609,-0.4089 l 0,0 z m 1.40974,-1.611494 c 1.00379,-1.003791 2.63893,-3.426298 3.942164,-5.840433 1.339589,-2.481478 1.923828,-4.013384 1.993578,-5.227272 l 0.0444,-0.772728 -0.379888,-0.454545 c -0.887977,-1.062484 -3.296673,-2.497995 -5.044408,-3.006317 -1.243241,-0.361592 -2.548462,-0.396437 -3.698493,-0.09874 -1.604492,0.415339 -3.276439,1.353299 -4.39814,2.467349 -0.770132,0.764879 -0.993997,1.188015 -0.969601,1.832684 0.07983,2.109572 3.076879,6.891493 6.472869,10.327751 0.679444,0.6875 1.308345,1.25 1.39756,1.25 0.08921,0 0.377195,-0.214987 0.639958,-0.477749 l 0,0 z M 38.53346,9.6931026 c 2.563559,-1.2546403 4.974674,-2.0131009 7.727273,-2.4307564 0.851344,-0.1291756 1.629931,-0.1654402 3.545454,-0.1651385 2.667343,4.182e-4 3.722739,0.095389 8.082636,0.7273095 2.067432,0.2996521 2.531874,0.33239 2.043609,0.1440514 C 59.812997,7.9224991 59.18346,7.6717754 58.53346,7.4114049 51.792273,4.7110872 46.979586,3.982114 45.22139,5.3950382 44.609645,5.8866502 44.221593,5.8475916 43.980309,5.2701196 43.658111,4.4989913 43.926335,3.5054173 44.750482,2.4171893 c 0.61721,-0.814982 0.520462,-0.7946682 -0.989749,0.2078131 -1.79139,1.1891282 -3.847803,3.057017 -4.892086,4.4435966 -0.558317,0.7413247 -1.05091,1.6079804 -1.396177,2.4563994 -0.263501,0.6474966 -0.308847,0.8342256 -0.18901,0.7783136 0.0375,-0.0175 0.6,-0.29209 1.25,-0.6102094 l 0,0 z"
         style="fill:#ffffff;fill-opacity:1" />
      <path
         inkscape:connector-curvature="0"
         id="path3866"
         d="M 19.624369,46.99 C 18.200841,46.835802 16.595566,46.388278 15.260733,45.773492 10.684298,43.665713 7.0641805,38.672757 5.8428114,32.784061 c -0.6475375,-3.12203 -0.6475375,-6.533421 0,-9.655451 C 7.6638451,14.348697 14.489355,8.2689233 21.754351,8.955521 c 1.34427,0.1270438 1.986343,0.3481121 4.233655,1.457666 3.101788,1.53143 2.966068,1.443587 4.272727,2.765463 1.484943,1.502237 2.548008,2.959504 2.158934,2.959504 -0.03758,0 -0.166192,0.184457 -0.285792,0.409906 l -0.217455,0.409906 -0.299013,-0.454027 c -1.944487,-2.952554 -4.747801,-5.152973 -7.629401,-5.98858 -2.302123,-0.6675706 -4.965939,-0.6247799 -7.099127,0.114038 -3.959861,1.371477 -7.1569133,4.634597 -8.9338259,9.118448 -0.9968115,2.515349 -1.3847363,4.717766 -1.3817603,7.844854 0.00268,2.8158 0.304835,4.871389 1.0501537,7.144286 0.9579893,2.921449 2.4121965,5.341349 4.3656875,7.264805 2.524388,2.485574 5.487407,3.772727 8.684802,3.772727 0.893323,0 2.283603,-0.158203 2.815596,-0.320392 0.09744,-0.0297 0.208478,0.117671 0.378482,0.502319 0.132325,0.299397 0.203653,0.567188 0.158505,0.59509 -0.404619,0.250069 -3.393281,0.547747 -4.40215,0.438466 z"
         style="fill:#ffffff;fill-opacity:1" />
      <path
         inkscape:connector-curvature="0"
         id="path3868"
         d="m 19.452821,36.597227 c -2.165986,-0.471723 -4.181595,-1.804589 -5.482247,-3.625253 -2.050324,-2.870065 -2.397027,-6.716995 -0.892281,-9.900508 0.992547,-2.099879 2.504377,-3.623173 4.544955,-4.579421 2.705801,-1.267981 5.958635,-0.983266 8.450996,0.739702 1.874954,1.296156 3.234179,3.248948 3.844972,5.52406 0.211969,0.789553 0.237117,1.049658 0.239118,2.473256 0.002,1.439296 -0.02085,1.677544 -0.240006,2.5 -0.322345,1.209699 -1.089601,2.724904 -1.869121,3.691211 -1.17338,1.454543 -2.99926,2.643886 -4.74302,3.08951 -1.110116,0.283695 -2.778417,0.321553 -3.853366,0.08744 l 0,0 z m 7.296199,-7.506589 c 0.995263,-0.446647 1.763105,-1.473176 1.917157,-2.56305 0.317887,-2.248943 -1.585264,-4.159085 -3.828011,-3.842075 -0.729338,0.103091 -1.275553,0.371786 -1.838942,0.904616 -1.839123,1.739366 -1.133348,4.849813 1.281803,5.649082 0.740011,0.244899 1.723096,0.185717 2.467993,-0.148573 l 0,0 z"
         style="fill:#ffffff;fill-opacity:1" />
      <path
         inkscape:connector-curvature="0"
         id="path3870"
         d="m 41.578915,36.33171 c -2.75048,-0.60201 -5.24765,-2.61555 -6.446526,-5.198016 -1.680421,-3.619753 -0.900529,-7.959799 1.935851,-10.77288 1.413873,-1.402258 2.948147,-2.194479 4.913877,-2.537273 3.800314,-0.66272 7.77301,1.391418 9.551776,4.938878 2.285602,4.558263 0.699086,10.017262 -3.649836,12.558625 -1.334073,0.779589 -2.481609,1.09032 -4.214233,1.141135 -1.055629,0.03096 -1.472092,0.005 -2.090909,-0.130469 z M 40.86797,28.986834 c 1.385804,-0.656537 2.162091,-1.843562 2.164506,-3.309759 0.0045,-2.732659 -3.007194,-4.452815 -5.551874,-3.171002 -2.150502,1.083257 -2.621959,4.011376 -0.919918,5.713417 0.799466,0.799466 1.590078,1.098501 2.836413,1.072822 0.760277,-0.01566 0.936309,-0.05222 1.470873,-0.305478 z"
         style="fill:#ffffff;fill-opacity:1" />
    </g>
  </g>
</svg>
